{
  "accessors": [
    {
      "bufferView": 2,
      "componentType": 5126,
      "count": 2601,
      "max": [
        2499.30419921875,
        2503.68115234375,
        1399.70068359375
      ],
      "min": [
        -2500.69580078125,
        -2496.31884765625,
        0
      ],
      "type": "VEC3"
    },
    {
      "bufferView": 2,
      "byteOffset": 31212,
      "componentType": 5126,
      "count": 2601,
      "max": [
        0.88770914077758789,
        0.88499629497528076,
        1
      ],
      "min": [
        -0.90058004856109619,
        -0.89187288284301758,
        0.43429243564605713
      ],
      "type": "VEC3"
    },
    {
      "bufferView": 1,
      "componentType": 5126,
      "count": 2601,
      "max": [
        2.4900000095367432,
        2.4900000095367432
      ],
      "min": [
        -1.4900000095367432,
        -1.4900000095367432
      ],
      "type": "VEC2"
    },
    {
      "bufferView": 0,
      "componentType": 5125,
      "count": 15000,
      "max": [
        2600
      ],
      "min": [
        0
      ],
      "type": "SCALAR"
    },
    {
      "bufferView": 2,
      "byteOffset": 62424,
      "componentType": 5126,
      "count": 70,
      "max": [
        1049.8935546875,
        808.78668212890625,
        1778.21337890625
      ],
      "min": [
        -912.5059814453125,
        -591.213623046875,
        1085.5947265625
      ],
      "type": "VEC3"
    },
    {
      "bufferView": 2,
      "byteOffset": 63264,
      "componentType": 5126,
      "count": 70,
      "max": [
        0.82827937602996826,
        0.68140685558319092,
        0.7555280327796936
      ],
      "min": [
        -0.82827937602996826,
        -0.68138736486434937,
        -0.94737237691879272
      ],
      "type": "VEC3"
    },
    {
      "bufferView": 1,
      "byteOffset": 20808,
      "componentType": 5126,
      "count": 70,
      "max": [
        2.6019001007080078,
        2.6926999092102051
      ],
      "min": [
        -1.6927000284194946,
        -0.69770002365112305
      ],
      "type": "VEC2"
    },
    {
      "bufferView": 0,
      "byteOffset": 60000,
      "componentType": 5125,
      "count": 132,
      "max": [
        69
      ],
      "min": [
        0
      ],
      "type": "SCALAR"
    },
    {
      "bufferView": 2,
      "byteOffset": 64104,
      "componentType": 5126,
      "count": 423,
      "max": [
        556.47161865234375,
        632.46258544921875,
        800.003173828125
      ],
      "min": [
        -443.52841186523438,
        -352.34521484375,
        0.0031999999191612005
      ],
      "type": "VEC3"
    },
    {
      "bufferView": 2,
      "byteOffset": 69180,
      "componentType": 5126,
      "count": 423,
      "max": [
        1,
        0.98481583595275879,
        1
      ],
      "min": [
        -1,
        -0.98481583595275879,
        -1
      ],
      "type": "VEC3"
    },
    {
      "bufferView": 1,
      "byteOffset": 21368,
      "componentType": 5126,
      "count": 423,
      "max": [
        7.5,
        1
      ],
      "min": [
        -2.5,
        0
      ],
      "type": "VEC2"
    },
    {
      "bufferView": 0,
      "byteOffset": 60528,
      "componentType": 5125,
      "count": 2373,
      "max": [
        422
      ],
      "min": [
        0
      ],
      "type": "SCALAR"
    },
    {
      "bufferView": 2,
      "byteOffset": 74256,
      "componentType": 5126,
      "count": 9503,
      "max": [
        1545.8017578125,
        -144.66079711914062,
        108.16049957275391
      ],
      "min": [
        374.49569702148438,
        -1341.979248046875,
        -83.340301513671875
      ],
      "type": "VEC3"
    },
    {
      "bufferView": 2,
      "byteOffset": 188292,
      "componentType": 5126,
      "count": 9503,
      "max": [
        0.99956458806991577,
        0.99908870458602905,
        0.99951237440109253
      ],
      "min": [
        -0.99956780672073364,
        -0.99906796216964722,
        -0.99950748682022095
      ],
      "type": "VEC3"
    },
    {
      "bufferView": 1,
      "byteOffset": 24752,
      "componentType": 5126,
      "count": 9503,
      "max": [
        1,
        1
      ],
      "min": [
        0,
        -0
      ],
      "type": "VEC2"
    },
    {
      "bufferView": 0,
      "byteOffset": 70020,
      "componentType": 5125,
      "count": 48960,
      "max": [
        9502
      ],
      "min": [
        0
      ],
      "type": "SCALAR"
    },
    {
      "bufferView": 2,
      "byteOffset": 302328,
      "componentType": 5126,
      "count": 559,
      "max": [
        621.94500732421875,
        -837.198974609375,
        99.661796569824219
      ],
      "min": [
        416.82070922851562,
        -1042.3232421875,
        -49.628299713134766
      ],
      "type": "VEC3"
    },
    {
      "bufferView": 2,
      "byteOffset": 309036,
      "componentType": 5126,
      "count": 559,
      "max": [
        0.99956458806991577,
        0.99908870458602905,
        0.99951237440109253
      ],
      "min": [
        -0.99956780672073364,
        -0.99906796216964722,
        -0.99950748682022095
      ],
      "type": "VEC3"
    },
    {
      "bufferView": 1,
      "byteOffset": 100776,
      "componentType": 5126,
      "count": 559,
      "max": [
        1,
        1
      ],
      "min": [
        0,
        -0
      ],
      "type": "VEC2"
    },
    {
      "bufferView": 0,
      "byteOffset": 265860,
      "componentType": 5125,
      "count": 2880,
      "max": [
        558
      ],
      "min": [
        0
      ],
      "type": "SCALAR"
    },
    {
      "bufferView": 2,
      "byteOffset": 315744,
      "componentType": 5126,
      "count": 6426,
      "max": [
        205.80369567871094,
        512.34759521484375,
        115.69640350341797
      ],
      "min": [
        -2366.5078125,
        -1980.9388427734375,
        -23.916500091552734
      ],
      "type": "VEC3"
    },
    {
      "bufferView": 2,
      "byteOffset": 392856,
      "componentType": 5126,
      "count": 6426,
      "max": [
        0.99969857931137085,
        0.99249327182769775,
        0.90769267082214355
      ],
      "min": [
        -0.99988448619842529,
        -0.99131464958190918,
        -1
      ],
      "type": "VEC3"
    },
    {
      "bufferView": 1,
      "byteOffset": 105248,
      "componentType": 5126,
      "count": 6426,
      "max": [
        0.97219997644424438,
        1
      ],
      "min": [
        -0.027799999341368675,
        0
      ],
      "type": "VEC2"
    },
    {
      "bufferView": 0,
      "byteOffset": 277380,
      "componentType": 5125,
      "count": 36288,
      "max": [
        6425
      ],
      "min": [
        0
      ],
      "type": "SCALAR"
    },
    {
      "bufferView": 2,
      "byteOffset": 469968,
      "componentType": 5126,
      "count": 44,
      "max": [
        167.59410095214844,
        742.90081787109375,
        1200.0008544921875
      ],
      "min": [
        -32.405899047851562,
        -457.09921264648438,
        0.00079999997979030013
      ],
      "type": "VEC3"
    },
    {
      "bufferView": 2,
      "byteOffset": 470496,
      "componentType": 5126,
      "count": 44,
      "max": [
        0.57735025882720947,
        0.57735025882720947,
        0.57735025882720947
      ],
      "min": [
        -0.57735025882720947,
        -0.57735025882720947,
        -0.57735025882720947
      ],
      "type": "VEC3"
    },
    {
      "bufferView": 1,
      "byteOffset": 156656,
      "componentType": 5126,
      "count": 44,
      "max": [
        1,
        1
      ],
      "min": [
        0,
        0
      ],
      "type": "VEC2"
    },
    {
      "bufferView": 0,
      "byteOffset": 422532,
      "componentType": 5125,
      "count": 84,
      "max": [
        43
      ],
      "min": [
        0
      ],
      "type": "SCALAR"
    },
    {
      "bufferView": 2,
      "byteOffset": 471024,
      "componentType": 5126,
      "count": 174,
      "max": [
        416.29360961914062,
        436.10040283203125,
        7
      ],
      "min": [
        -2500.858154296875,
        -2496.482177734375,
        -5
      ],
      "type": "VEC3"
    },
    {
      "bufferView": 2,
      "byteOffset": 473112,
      "componentType": 5126,
      "count": 174,
      "max": [
        0.78376656770706177,
        0.72119098901748657,
        0.75927257537841797
      ],
      "min": [
        -0.75227022171020508,
        -0.72747623920440674,
        -0.75927257537841797
      ],
      "type": "VEC3"
    },
    {
      "bufferView": 1,
      "byteOffset": 157008,
      "componentType": 5126,
      "count": 174,
      "max": [
        5,
        5
      ],
      "min": [
        0,
        0
      ],
      "type": "VEC2"
    },
    {
      "bufferView": 0,
      "byteOffset": 422868,
      "componentType": 5125,
      "count": 1032,
      "max": [
        173
      ],
      "min": [
        0
      ],
      "type": "SCALAR"
    },
    {
      "bufferView": 2,
      "byteOffset": 475200,
      "componentType": 5126,
      "count": 5523,
      "max": [
        298.3251953125,
        544.6331787109375,
        150.318603515625
      ],
      "min": [
        -2396.1533203125,
        -2022.519775390625,
        26.124300003051758
      ],
      "type": "VEC3"
    },
    {
      "bufferView": 2,
      "byteOffset": 541476,
      "componentType": 5126,
      "count": 5523,
      "max": [
        0.99845415353775024,
        0.99646604061126709,
        0.99933910369873047
      ],
      "min": [
        -0.99410539865493774,
        -0.97544461488723755,
        -0.69129049777984619
      ],
      "type": "VEC3"
    },
    {
      "bufferView": 1,
      "byteOffset": 158400,
      "componentType": 5126,
      "count": 5523,
      "max": [
        1,
        1
      ],
      "min": [
        0,
        0.5625
      ],
      "type": "VEC2"
    },
    {
      "bufferView": 0,
      "byteOffset": 426996,
      "componentType": 5125,
      "count": 28098,
      "max": [
        5522
      ],
      "min": [
        0
      ],
      "type": "SCALAR"
    },
    {
      "bufferView": 2,
      "byteOffset": 607752,
      "componentType": 5126,
      "count": 580,
      "max": [
        1427.662109375,
        584.3408203125,
        764.424072265625
      ],
      "min": [
        -397.07379150390625,
        -1208.783203125,
        -23.657800674438477
      ],
      "type": "VEC3"
    },
    {
      "bufferView": 2,
      "byteOffset": 614712,
      "componentType": 5126,
      "count": 580,
      "max": [
        1,
        0.98481583595275879,
        1
      ],
      "min": [
        -1,
        -0.98481583595275879,
        -1
      ],
      "type": "VEC3"
    },
    {
      "bufferView": 1,
      "byteOffset": 202584,
      "componentType": 5126,
      "count": 580,
      "max": [
        1,
        1
      ],
      "min": [
        0,
        0
      ],
      "type": "VEC2"
    },
    {
      "bufferView": 0,
      "byteOffset": 539388,
      "componentType": 5125,
      "count": 3456,
      "max": [
        579
      ],
      "min": [
        0
      ],
      "type": "SCALAR"
    }
  ],
  "asset": {
    "extras": {
      "author": "CharlotteMeehan (https://sketchfab.com/CharlotteMeehan)",
      "license": "CC-BY-4.0 (http://creativecommons.org/licenses/by/4.0/)",
      "source": "https://sketchfab.com/3d-models/well-pond-cd8e0bb1401441ec9c97b05bb30a4b38",
      "title": "Well Pond"
    },
    "generator": "Sketchfab-8.45.0",
    "version": "2.0"
  },
  "bufferViews": [
    {
      "buffer": 0,
      "byteLength": 553212,
      "byteOffset": 0,
      "name": "floatBufferViews",
      "target": 34963
    },
    {
      "buffer": 0,
      "byteLength": 207224,
      "byteOffset": 553212,
      "byteStride": 8,
      "name": "floatBufferViews",
      "target": 34962
    },
    {
      "buffer": 0,
      "byteLength": 621672,
      "byteOffset": 760436,
      "byteStride": 12,
      "name": "floatBufferViews",
      "target": 34962
    }
  ],
  "buffers": [
    {
      "byteLength": 1382108,
      "uri": "scene.bin"
    }
  ],
  "images": [
    {
      "uri": "textures/wire_000072004_baseColor.jpeg"
    },
    {
      "uri": "textures/wire_008008136_baseColor.jpeg"
    },
    {
      "uri": "textures/wire_135006006_baseColor.jpeg"
    },
    {
      "uri": "textures/wire_135059008_baseColor.jpeg"
    },
    {
      "uri": "textures/wire_138008110_baseColor.jpeg"
    },
    {
      "uri": "textures/wire_225087143_baseColor.png"
    },
    {
      "uri": "textures/wire_228184153_baseColor.jpeg"
    }
  ],
  "materials": [
    {
      "doubleSided": true,
      "emissiveFactor": [
        0,
        0,
        0
      ],
      "name": "wire_000072004",
      "pbrMetallicRoughness": {
        "baseColorFactor": [
          1,
          1,
          1,
          1
        ],
        "baseColorTexture": {
          "index": 0,
          "texCoord": 0
        },
        "metallicFactor": 0,
        "roughnessFactor": 0.91675550194980948
      }
    },
    {
      "doubleSided": true,
      "emissiveFactor": [
        0,
        0,
        0
      ],
      "name": "wire_008008136",
      "pbrMetallicRoughness": {
        "baseColorFactor": [
          1,
          1,
          1,
          1
        ],
        "baseColorTexture": {
          "index": 1,
          "texCoord": 0
        },
        "metallicFactor": 0,
        "roughnessFactor": 0.91675550194980948
      }
    },
    {
      "doubleSided": true,
      "emissiveFactor": [
        0,
        0,
        0
      ],
      "name": "wire_135006006",
      "pbrMetallicRoughness": {
        "baseColorFactor": [
          1,
          1,
          1,
          1
        ],
        "baseColorTexture": {
          "index": 2,
          "texCoord": 0
        },
        "metallicFactor": 0,
        "roughnessFactor": 0.91675550194980948
      }
    },
    {
      "doubleSided": true,
      "emissiveFactor": [
        0,
        0,
        0
      ],
      "name": "wire_135059008",
      "pbrMetallicRoughness": {
        "baseColorFactor": [
          1,
          1,
          1,
          1
        ],
        "baseColorTexture": {
          "index": 3,
          "texCoord": 0
        },
        "metallicFactor": 0,
        "roughnessFactor": 0.91675550194980948
      }
    },
    {
      "doubleSided": true,
      "emissiveFactor": [
        0,
        0,
        0
      ],
      "name": "wire_138008110",
      "pbrMetallicRoughness": {
        "baseColorFactor": [
          1,
          1,
          1,
          1
        ],
        "baseColorTexture": {
          "index": 4,
          "texCoord": 0
        },
        "metallicFactor": 0,
        "roughnessFactor": 0.91675550194980948
      }
    },
    {
      "doubleSided": true,
      "emissiveFactor": [
        0,
        0,
        0
      ],
      "name": "wire_166229229",
      "pbrMetallicRoughness": {
        "baseColorFactor": [
          1,
          1,
          1,
          1
        ],
        "baseColorTexture": {
          "index": 4,
          "texCoord": 0
        },
        "metallicFactor": 0,
        "roughnessFactor": 0.91675550194980948
      }
    },
    {
      "doubleSided": true,
      "emissiveFactor": [
        0,
        0,
        0
      ],
      "name": "wire_177088027",
      "pbrMetallicRoughness": {
        "baseColorFactor": [
          1,
          1,
          1,
          1
        ],
        "baseColorTexture": {
          "index": 3,
          "texCoord": 0
        },
        "metallicFactor": 0,
        "roughnessFactor": 0.91675550194980948
      }
    },
    {
      "doubleSided": true,
      "emissiveFactor": [
        0,
        0,
        0
      ],
      "name": "wire_225087143",
      "pbrMetallicRoughness": {
        "baseColorFactor": [
          1,
          1,
          1,
          1
        ],
        "baseColorTexture": {
          "index": 5,
          "texCoord": 0
        },
        "metallicFactor": 0,
        "roughnessFactor": 0.91675550194980948
      }
    },
    {
      "doubleSided": true,
      "emissiveFactor": [
        0,
        0,
        0
      ],
      "name": "wire_228184153",
      "pbrMetallicRoughness": {
        "baseColorFactor": [
          1,
          1,
          1,
          1
        ],
        "baseColorTexture": {
          "index": 6,
          "texCoord": 0
        },
        "metallicFactor": 0,
        "roughnessFactor": 0.91675550194980948
      }
    }
  ],
  "meshes": [
    {
      "primitives": [
        {
          "attributes": {
            "NORMAL": 1,
            "POSITION": 0,
            "TEXCOORD_0": 2
          },
          "indices": 3,
          "material": 0,
          "mode": 4
        }
      ]
    },
    {
      "primitives": [
        {
          "attributes": {
            "NORMAL": 5,
            "POSITION": 4,
            "TEXCOORD_0": 6
          },
          "indices": 7,
          "material": 1,
          "mode": 4
        }
      ]
    },
    {
      "primitives": [
        {
          "attributes": {
            "NORMAL": 9,
            "POSITION": 8,
            "TEXCOORD_0": 10
          },
          "indices": 11,
          "material": 2,
          "mode": 4
        }
      ]
    },
    {
      "primitives": [
        {
          "attributes": {
            "NORMAL": 13,
            "POSITION": 12,
            "TEXCOORD_0": 14
          },
          "indices": 15,
          "material": 3,
          "mode": 4
        }
      ]
    },
    {
      "primitives": [
        {
          "attributes": {
            "NORMAL": 17,
            "POSITION": 16,
            "TEXCOORD_0": 18
          },
          "indices": 19,
          "material": 3,
          "mode": 4
        }
      ]
    },
    {
      "primitives": [
        {
          "attributes": {
            "NORMAL": 21,
            "POSITION": 20,
            "TEXCOORD_0": 22
          },
          "indices": 23,
          "material": 4,
          "mode": 4
        }
      ]
    },
    {
      "primitives": [
        {
          "attributes": {
            "NORMAL": 25,
            "POSITION": 24,
            "TEXCOORD_0": 26
          },
          "indices": 27,
          "material": 5,
          "mode": 4
        }
      ]
    },
    {
      "primitives": [
        {
          "attributes": {
            "NORMAL": 29,
            "POSITION": 28,
            "TEXCOORD_0": 30
          },
          "indices": 31,
          "material": 6,
          "mode": 4
        }
      ]
    },
    {
      "primitives": [
        {
          "attributes": {
            "NORMAL": 33,
            "POSITION": 32,
            "TEXCOORD_0": 34
          },
          "indices": 35,
          "material": 7,
          "mode": 4
        }
      ]
    },
    {
      "primitives": [
        {
          "attributes": {
            "NORMAL": 37,
            "POSITION": 36,
            "TEXCOORD_0": 38
          },
          "indices": 39,
          "material": 8,
          "mode": 4
        }
      ]
    }
  ],
  "nodes": [
    {
      "children": [
        1
      ],
      "name": "RootNode (gltf orientation matrix)",
      "rotation": [
        -0.70710678118654746,
        -0,
        -0,
        0.70710678118654757
      ]
    },
    {
      "children": [
        2
      ],
      "name": "RootNode (model correction matrix)"
    },
    {
      "children": [
        3,
        4,
        5,
        6,
        7,
        8,
        9,
        10,
        11,
        12
      ],
      "name": "Well Pond.obj.cleaner.materialmerger.gles"
    },
    {
      "mesh": 0,
      "name": ""
    },
    {
      "mesh": 1,
      "name": ""
    },
    {
      "mesh": 2,
      "name": ""
    },
    {
      "mesh": 3,
      "name": ""
    },
    {
      "mesh": 4,
      "name": ""
    },
    {
      "mesh": 5,
      "name": ""
    },
    {
      "mesh": 6,
      "name": ""
    },
    {
      "mesh": 7,
      "name": ""
    },
    {
      "mesh": 8,
      "name": ""
    },
    {
      "mesh": 9,
      "name": ""
    }
  ],
  "samplers": [
    {
      "magFilter": 9729,
      "minFilter": 9987,
      "wrapS": 10497,
      "wrapT": 10497
    }
  ],
  "scene": 0,
  "scenes": [
    {
      "name": "OSG_Scene",
      "nodes": [
        0
      ]
    }
  ],
  "textures": [
    {
      "sampler": 0,
      "source": 0
    },
    {
      "sampler": 0,
      "source": 1
    },
    {
      "sampler": 0,
      "source": 2
    },
    {
      "sampler": 0,
      "source": 3
    },
    {
      "sampler": 0,
      "source": 4
    },
    {
      "sampler": 0,
      "source": 5
    },
    {
      "sampler": 0,
      "source": 6
    }
  ]
}

