{
  "accessors": [
    {
      "bufferView": 2,
      "componentType": 5126,
      "count": 1342,
      "max": [
        5,
        2.1404271125793457,
        0.22049331665039062
      ],
      "min": [
        0,
        0,
        -0.22409820556640625
      ],
      "type": "VEC3"
    },
    {
      "bufferView": 2,
      "byteOffset": 16104,
      "componentType": 5126,
      "count": 1342,
      "max": [
        1,
        1,
        1
      ],
      "min": [
        -1,
        -1,
        -1
      ],
      "type": "VEC3"
    },
    {
      "bufferView": 3,
      "componentType": 5126,
      "count": 1342,
      "max": [
        1,
        1,
        0.40079173445701599,
        1
      ],
      "min": [
        -0.40141484141349792,
        -0.066940277814865112,
        -1,
        -1
      ],
      "type": "VEC4"
    },
    {
      "bufferView": 1,
      "componentType": 5126,
      "count": 1342,
      "max": [
        0.188568115234375,
        0.35114037990570068
      ],
      "min": [
        0.024583790451288223,
        0.25430282950401306
      ],
      "type": "VEC2"
    },
    {
      "bufferView": 1,
      "byteOffset": 10736,
      "componentType": 5126,
      "count": 1342,
      "max": [
        0.188568115234375,
        0.35114037990570068
      ],
      "min": [
        0.024583790451288223,
        0.25430282950401306
      ],
      "type": "VEC2"
    },
    {
      "bufferView": 1,
      "byteOffset": 21472,
      "componentType": 5126,
      "count": 1342,
      "max": [
        0.188568115234375,
        0.35114037990570068
      ],
      "min": [
        0.024583790451288223,
        0.25430282950401306
      ],
      "type": "VEC2"
    },
    {
      "bufferView": 1,
      "byteOffset": 32208,
      "componentType": 5126,
      "count": 1342,
      "max": [
        0.188568115234375,
        0.35114037990570068
      ],
      "min": [
        0.024583790451288223,
        0.25430282950401306
      ],
      "type": "VEC2"
    },
    {
      "bufferView": 1,
      "byteOffset": 42944,
      "componentType": 5126,
      "count": 1342,
      "max": [
        0.188568115234375,
        0.35114037990570068
      ],
      "min": [
        0.024583790451288223,
        0.25430282950401306
      ],
      "type": "VEC2"
    },
    {
      "bufferView": 0,
      "componentType": 5125,
      "count": 2148,
      "max": [
        1341
      ],
      "min": [
        0
      ],
      "type": "SCALAR"
    }
  ],
  "asset": {
    "extras": {
      "author": "nyu_grad_alley_2020 (https://sketchfab.com/nyu_grad_alley_2020)",
      "license": "CC-BY-4.0 (http://creativecommons.org/licenses/by/4.0/)",
      "source": "https://sketchfab.com/3d-models/fence-b5da5897733f47508ba978c2dcc1e321",
      "title": "Fence"
    },
    "generator": "Sketchfab-8.49.0",
    "version": "2.0"
  },
  "bufferViews": [
    {
      "buffer": 0,
      "byteLength": 8592,
      "byteOffset": 0,
      "name": "floatBufferViews",
      "target": 34963
    },
    {
      "buffer": 0,
      "byteLength": 53680,
      "byteOffset": 8592,
      "byteStride": 8,
      "name": "floatBufferViews",
      "target": 34962
    },
    {
      "buffer": 0,
      "byteLength": 32208,
      "byteOffset": 62272,
      "byteStride": 12,
      "name": "floatBufferViews",
      "target": 34962
    },
    {
      "buffer": 0,
      "byteLength": 21472,
      "byteOffset": 94480,
      "byteStride": 16,
      "name": "floatBufferViews",
      "target": 34962
    }
  ],
  "buffers": [
    {
      "byteLength": 115952,
      "uri": "scene.bin"
    }
  ],
  "images": [
    {
      "uri": "textures/PolygonCity_Mat_01_A_Hue_baseColor.jpeg"
    },
    {
      "uri": "textures/PolygonCity_Mat_01_A_Hue_metallicRoughness.png"
    },
    {
      "uri": "textures/PolygonCity_Mat_01_A_Hue_emissive.jpeg"
    },
    {
      "uri": "textures/PolygonCity_Mat_01_A_Hue_normal.png"
    }
  ],
  "materials": [
    {
      "doubleSided": false,
      "emissiveFactor": [
        0,
        0,
        0
      ],
      "emissiveTexture": {
        "index": 2,
        "texCoord": 0
      },
      "name": "PolygonCity_Mat_01_A_Hue",
      "normalTexture": {
        "index": 3,
        "scale": 1,
        "texCoord": 0
      },
      "pbrMetallicRoughness": {
        "baseColorFactor": [
          1,
          1,
          1,
          1
        ],
        "baseColorTexture": {
          "index": 0,
          "texCoord": 0
        },
        "metallicFactor": 0,
        "metallicRoughnessTexture": {
          "index": 1,
          "texCoord": 0
        },
        "roughnessFactor": 0.5
      }
    }
  ],
  "meshes": [
    {
      "primitives": [
        {
          "attributes": {
            "NORMAL": 1,
            "POSITION": 0,
            "TANGENT": 2,
            "TEXCOORD_0": 3,
            "TEXCOORD_1": 4,
            "TEXCOORD_2": 5,
            "TEXCOORD_3": 6,
            "TEXCOORD_4": 7
          },
          "indices": 8,
          "material": 0,
          "mode": 4
        }
      ]
    }
  ],
  "nodes": [
    {
      "children": [
        1
      ],
      "name": "RootNode (gltf orientation matrix)",
      "rotation": [
        -0.70710678118654746,
        -0,
        -0,
        0.70710678118654757
      ]
    },
    {
      "children": [
        2
      ],
      "name": "RootNode (model correction matrix)"
    },
    {
      "children": [
        3
      ],
      "name": "root"
    },
    {
      "children": [
        4
      ],
      "matrix": [
        1,
        0,
        0,
        0,
        0,
        2.2204460492503131e-16,
        1,
        0,
        0,
        -1,
        2.2204460492503131e-16,
        0,
        0,
        0,
        0,
        1
      ],
      "name": "GLTF_SceneRootNode"
    },
    {
      "children": [
        5
      ],
      "matrix": [
        10,
        0,
        0,
        0,
        0,
        5.440000057220459,
        0,
        0,
        0,
        0,
        10,
        0,
        -100,
        0,
        -180.00001525878906,
        1
      ],
      "name": "SM_Env_Fence_01 (19)_0"
    },
    {
      "mesh": 0,
      "name": ""
    }
  ],
  "samplers": [
    {
      "magFilter": 9729,
      "minFilter": 9729,
      "wrapS": 10497,
      "wrapT": 10497
    }
  ],
  "scene": 0,
  "scenes": [
    {
      "name": "OSG_Scene",
      "nodes": [
        0
      ]
    }
  ],
  "textures": [
    {
      "sampler": 0,
      "source": 0
    },
    {
      "sampler": 0,
      "source": 1
    },
    {
      "sampler": 0,
      "source": 2
    },
    {
      "sampler": 0,
      "source": 3
    }
  ]
}

